<svg version="1.2" xmlns="http://www.w3.org/2000/svg" viewBox="0 0 192 192" width="192" height="192"><style>.a{opacity:.9;fill:#e0302b}.b{opacity:1;fill:#e0302b}.c{opacity:1;fill:#e33c31}.d{opacity:1;fill:#c76462}.e{opacity:1;fill:#5ed2fa}.f{fill:#c47472}.g{fill:#e34d3f}.h{fill:#29aee8}.i{fill:#28aee8}.j{fill:#3ea8de}.k{opacity:1;fill:#ef4f3c}.l{fill:#c86f6a}.m{opacity:1;fill:#dd362f}.n{fill:#ef4d39}.o{fill:#6696bb}.p{opacity:.9;fill:#58d5fe}.q{fill:#26ace7}.r{fill:#2aafe8}.s{fill:#dbd2d7}</style><path fill-rule="evenodd" class="a" d="m86.5 3.5q29.1-3.4 52 14 4.6 3.8 7.5 9 1.6 9.8-8.5 11-6.4-1.1-10-6.5-4.7-3.4-10-6-10.9-5.4-23-4.5 3.4-4.3 6-9-2.2-3.2-3-7-5.8 0.5-11-1z"/><path fill-rule="evenodd" class="b" d="m86.5 3.5q5.2 1.5 11 1 0.8 3.8 3 7-2.6 4.7-6 9-6.1-0.5-12 1-5.9 2.5-12 5-7.3 4.9-14 10.5-5.1 0.8-10-0.5-5.5-12 6-19 9.6-7.3 21-11.5 6.3-2.2 13-2.5z"/><path fill-rule="evenodd" class="c" d="m128.5 46.5q-3.1 3.4-7.5 5-7.1-3.4-13.5-8-5-3.6-11.5-3-3.3 0.3-6.5 0.5-4.2 0.9-7 3.5-1.5 1-3 2-3.2 1.3-6 3.5-3.5 0.7-7 0.5-2.5-1.6-4-4-0.7-7.6 6-11.5 7.8-3.1 15-7 25.7-5.3 44 12.5 1.4 2.8 1 6z"/><path fill-rule="evenodd" class="d" d="m107.5 43.5q-5.4-1.4-11-2-7 1.5-14 3 2.8-2.6 7-3.5 3.3-0.3 6.5-0.5 6.5-0.6 11.5 3z"/><path fill-rule="evenodd" class="e" d="m107.5 43.5q6.4 4.6 13.5 8 4.4-1.6 7.5-5 26.6 13.1 36 41 0 0.5 0 1-68.4 1.5-137 1-1.3-0.5-1-2 9.4-27.9 36-41 1.5 2.4 4 4 8 3.2 13-4 1.5-1 3-2 7-1.5 14-3 5.6 0.6 11 2z"/><path fill-rule="evenodd" class="f" d="m79.5 46.5q-5 7.2-13 4 3.5 0.2 7-0.5 2.8-2.2 6-3.5z"/><path fill-rule="evenodd" class="g" d="m99.5 53.5q4.9 3.2 9.5 7 1.8 6.7-5 8-4.4-1.3-8.5-3-5.6 3.2-12 4-2-2.8-2-6.5 4.5-12.7 18-9.5z"/><path fill-rule="evenodd" class="h" d="m71.5 57.5q2 0 4 0 0.2 3-0.5 6-3.4 6.6-5.5 13.5-10 0.7-20 0.5 1.2-4.3 4-8 8.8-6.5 18-12z"/><path fill-rule="evenodd" class="i" d="m115.5 57.5q7.7 1.9 14 6.5 6.7 6.6 14 12.5-11 1.7-22 0.5-1.7-7.2-5.5-13.5-0.7-3-0.5-6z"/><path fill-rule="evenodd" class="j" d="m99.5 53.5q12.8 0.5 10.5 13-2.5 1.5-2.5 4.5 1.4 3.1 2 6.5-13.5 0-27 0 0.9-3.9 1-8 6.4-0.8 12-4 4.1 1.7 8.5 3 6.8-1.3 5-8-4.6-3.8-9.5-7z"/><path fill-rule="evenodd" class="k" d="m26.5 87.5q-0.3 1.5 1 2 34 1 68.5 1 34.8 0 68.5-2 0-0.5 0-1 5.1-0.1 10 1 0.7 3.5 1 7-1.5 21.7-1 44-2.9 0.3-5 2.5-74 1-148 0-2.3-1.2-3.5-3.5-0.5 0.5-1 1-0.3-22.3-1.5-44 0.3-3.5 1-7 4.9-1.1 10-1z"/><path fill-rule="evenodd" class="l" d="m164.5 88.5q-33.7 2-68.5 2-34.5 0-68.5-1 68.6 0.5 137-1z"/><path fill-rule="evenodd" class="m" d="m15.5 95.5q1.2 21.7 1.5 44 0.5-0.5 1-1 1.2 2.3 3.5 3.5 74 1 148 0 2.1-2.2 5-2.5-0.5-22.3 1-44 0.4 27.6-1 55-7.9 1.3-16 1 0-0.5 0-1-62.7-1.7-126-0.5-0.8 0.6-1 1.5-7.6 0.2-15-1-1.4-27.4-1-55z"/><path fill-rule="evenodd" class="n" d="m147.5 120.5q1 0 1 1 0 2.5 0 5-5 0-10 0 0-3 0-6 4.5 0 9 0z"/><path fill-rule="evenodd" class="o" d="m158.5 150.5q-7.5 0-15 0-12 0-24 0-5.5 0-11 0-13 0-26 0-5.5 0-11 0-11 0-22 0-8.6-0.4-17 1-0.5 0-1 0 0.2-0.9 1-1.5 63.3-1.2 126 0.5z"/><path fill-rule="evenodd" class="p" d="m49.5 150.5q5.5 5.5 10 12 6.1 2.3 11 6.5 2.5 0.7 5 0.5-1.5-9.6-4-19 5.5 0 11 0 12.8 43.6 26 0 5.5 0 11 0-1.9 9.4-4 19 17.1-4.6 28-19 7.5 0 15 0 0 0.5 0 1-5.6 12.6-17 21-31.2 22.3-69 12.5-24.6-8.9-39.5-30.5-0.7-1.4-0.5-3 8.4-1.4 17-1z"/><path fill-rule="evenodd" class="h" d="m49.5 150.5q11 0 22 0 2.5 9.4 4 19-2.5 0.2-5-0.5-4.9-4.2-11-6.5-4.5-6.5-10-12z"/><path fill-rule="evenodd" class="q" d="m82.5 150.5q13 0 26 0-13.2 43.6-26 0z"/><path fill-rule="evenodd" class="r" d="m119.5 150.5q12 0 24 0-10.9 14.4-28 19 2.1-9.6 4-19z"/><path class="s" d="m55.6 121.5v-21.3h6.6v31.8h-7.1l-13.8-21.3v21.3h-6.6v-31.8h7.1zm19.2-3v7.9h15.7v5.6h-22.6v-31.8h22.4v5.6h-15.5v7.1h13.3v5.6zm52.1 7.3l6.6-25.6h6.6l-8.4 31.8h-9l-6.3-24.1-6.6 24.1h-9l-8.5-31.8h7.1l6.4 25.3 6.8-25.3h7.7zm24.3 6.6q-2.4 0-4.7-0.3-2.3-0.4-4.2-1.1v-5.6q1.9 0.6 4.3 1 2.4 0.4 4.5 0.4 3.1 0 4.5-1 1.4-0.9 1.4-2.7 0-1-0.5-1.7-0.4-0.7-1.4-1.2-1-0.5-2.7-1l-2.4-0.6q-4.3-1.1-6.4-3.3-2.1-2.3-2.1-5.9 0-4.6 3.4-7.1 3.3-2.5 9.9-2.5 2 0 4 0.2 1.9 0.3 3.5 0.7v5.7q-1.5-0.5-3.4-0.8-1.9-0.2-3.7-0.2-3.6 0-5.2 1-1.5 0.9-1.5 2.7 0 0.9 0.4 1.6 0.3 0.6 1.2 1.1 0.9 0.5 2.4 0.9l2.4 0.6q4.7 1.2 6.9 3.4 2.1 2.2 2.1 5.9 0 3-1.5 5.2-1.5 2.3-4.4 3.4-2.8 1.2-6.8 1.2z"/></svg>